<svg width="22" height="16" viewBox="0 0 22 16" fill="none" xmlns="http://www.w3.org/2000/svg">
<path d="M0.29303 8.71869L7.2935 15.719C7.68611 16.0984 8.3101 16.0927 8.69512 15.7077C9.08013 15.3226 9.08582 14.6987 8.7065 14.3061L3.41299 9.01266H21.0005C21.5524 9.01266 22 8.56506 22 8.01315C22 7.46124 21.5524 7.01365 21.0005 7.01365H3.41489L8.70839 1.71834C8.90185 1.53248 9.01185 1.27644 9.01375 1.00712C9.01565 0.739699 8.91133 0.481761 8.72167 0.292102C8.53011 0.102442 8.27217 -0.00187118 8.00474 2.54157e-05C7.73732 0.00192201 7.47937 0.111925 7.2935 0.305378L0.29303 7.30572C-0.0976766 7.69642 -0.0976766 8.32988 0.29303 8.72058V8.71869Z" fill="#333333"/>
</svg>
